<mxfile host="app.diagrams.net" modified="2021-03-04T11:46:28.124Z" agent="5.0 (Macintosh; Intel Mac OS X 11_2_0) AppleWebKit/537.36 (KHTML, like Gecko) Chrome/88.0.4324.192 Safari/537.36" etag="5kTLsLl_kns5WZGC3fZ5" version="14.4.3" type="github">
  <diagram id="stnC1IPQuIyhpSLb4h5h" name="第 1 页">
    <mxGraphModel dx="1426" dy="665" grid="1" gridSize="10" guides="1" tooltips="1" connect="1" arrows="1" fold="1" page="1" pageScale="1" pageWidth="827" pageHeight="1169" math="0" shadow="0">
      <root>
        <mxCell id="0" />
        <mxCell id="1" parent="0" />
        <mxCell id="3Ifn0Ms7M0TRrxpNWSRb-7" value="" style="rounded=1;" vertex="1" parent="1">
          <mxGeometry x="69.5" y="100" width="629" height="60" as="geometry" />
        </mxCell>
        <mxCell id="3Ifn0Ms7M0TRrxpNWSRb-8" value="算法模型选择" style="rounded=1;" vertex="1" parent="1">
          <mxGeometry x="189" y="110" width="110" height="40" as="geometry" />
        </mxCell>
        <mxCell id="3Ifn0Ms7M0TRrxpNWSRb-9" value="算法模型管理" style="rounded=1;" vertex="1" parent="1">
          <mxGeometry x="329" y="110" width="110" height="40" as="geometry" />
        </mxCell>
        <mxCell id="3Ifn0Ms7M0TRrxpNWSRb-10" value="参数修改" style="rounded=1;" vertex="1" parent="1">
          <mxGeometry x="529" y="110" width="110" height="40" as="geometry" />
        </mxCell>
        <mxCell id="3Ifn0Ms7M0TRrxpNWSRb-11" value="" style="endArrow=none;dashed=1;dashPattern=1 3;strokeWidth=2;" edge="1" parent="1">
          <mxGeometry width="50" height="50" relative="1" as="geometry">
            <mxPoint x="469" y="129.5" as="sourcePoint" />
            <mxPoint x="509" y="130" as="targetPoint" />
          </mxGeometry>
        </mxCell>
        <mxCell id="3Ifn0Ms7M0TRrxpNWSRb-12" value="训练学习&#xa;GUI界面" style="text;strokeColor=none;fillColor=none;align=center;verticalAlign=middle;rounded=0;" vertex="1" parent="1">
          <mxGeometry x="80" y="120" width="80" height="20" as="geometry" />
        </mxCell>
        <mxCell id="3Ifn0Ms7M0TRrxpNWSRb-13" value="" style="rounded=1;" vertex="1" parent="1">
          <mxGeometry x="69.5" y="200" width="629" height="110" as="geometry" />
        </mxCell>
        <mxCell id="3Ifn0Ms7M0TRrxpNWSRb-14" value="DQN" style="rounded=1;" vertex="1" parent="1">
          <mxGeometry x="170" y="210" width="110" height="40" as="geometry" />
        </mxCell>
        <mxCell id="3Ifn0Ms7M0TRrxpNWSRb-15" value="QMIX" style="rounded=1;" vertex="1" parent="1">
          <mxGeometry x="299" y="210" width="110" height="40" as="geometry" />
        </mxCell>
        <mxCell id="3Ifn0Ms7M0TRrxpNWSRb-16" value="COMA" style="rounded=1;" vertex="1" parent="1">
          <mxGeometry x="430" y="210" width="110" height="40" as="geometry" />
        </mxCell>
        <mxCell id="3Ifn0Ms7M0TRrxpNWSRb-17" value="策略训练&#xa;学习模型库" style="text;strokeColor=none;fillColor=none;align=center;verticalAlign=middle;rounded=0;" vertex="1" parent="1">
          <mxGeometry x="80" y="240" width="80" height="20" as="geometry" />
        </mxCell>
        <mxCell id="3Ifn0Ms7M0TRrxpNWSRb-18" value="策略梯度" style="rounded=1;" vertex="1" parent="1">
          <mxGeometry x="560" y="210" width="110" height="40" as="geometry" />
        </mxCell>
        <mxCell id="3Ifn0Ms7M0TRrxpNWSRb-19" value="行动者-评论家" style="rounded=1;" vertex="1" parent="1">
          <mxGeometry x="170" y="260" width="110" height="40" as="geometry" />
        </mxCell>
        <mxCell id="3Ifn0Ms7M0TRrxpNWSRb-20" value="信任域&#xa;策略优化" style="rounded=1;" vertex="1" parent="1">
          <mxGeometry x="299" y="260" width="110" height="40" as="geometry" />
        </mxCell>
        <mxCell id="3Ifn0Ms7M0TRrxpNWSRb-21" value="" style="endArrow=none;dashed=1;dashPattern=1 3;strokeWidth=2;" edge="1" parent="1">
          <mxGeometry width="50" height="50" relative="1" as="geometry">
            <mxPoint x="450" y="279.5" as="sourcePoint" />
            <mxPoint x="500" y="279.5" as="targetPoint" />
            <Array as="points" />
          </mxGeometry>
        </mxCell>
        <mxCell id="3Ifn0Ms7M0TRrxpNWSRb-22" value="" style="rounded=1;" vertex="1" parent="1">
          <mxGeometry x="69.5" y="350" width="629" height="60" as="geometry" />
        </mxCell>
        <mxCell id="3Ifn0Ms7M0TRrxpNWSRb-23" value="算法训练学习" style="rounded=1;" vertex="1" parent="1">
          <mxGeometry x="219" y="360" width="110" height="40" as="geometry" />
        </mxCell>
        <mxCell id="3Ifn0Ms7M0TRrxpNWSRb-24" value="对抗场景应用" style="rounded=1;" vertex="1" parent="1">
          <mxGeometry x="430" y="360" width="110" height="40" as="geometry" />
        </mxCell>
        <mxCell id="3Ifn0Ms7M0TRrxpNWSRb-27" value="博弈对抗" style="text;strokeColor=none;fillColor=none;align=center;verticalAlign=middle;rounded=0;" vertex="1" parent="1">
          <mxGeometry x="80" y="370" width="80" height="20" as="geometry" />
        </mxCell>
        <mxCell id="3Ifn0Ms7M0TRrxpNWSRb-28" value="" style="shape=flexArrow;endArrow=classic;" edge="1" parent="1">
          <mxGeometry width="50" height="50" relative="1" as="geometry">
            <mxPoint x="190" y="160" as="sourcePoint" />
            <mxPoint x="190" y="200" as="targetPoint" />
          </mxGeometry>
        </mxCell>
        <mxCell id="3Ifn0Ms7M0TRrxpNWSRb-29" value="" style="shape=flexArrow;endArrow=classic;" edge="1" parent="1">
          <mxGeometry width="50" height="50" relative="1" as="geometry">
            <mxPoint x="383.79999999999995" y="160" as="sourcePoint" />
            <mxPoint x="383.79999999999995" y="200" as="targetPoint" />
          </mxGeometry>
        </mxCell>
        <mxCell id="3Ifn0Ms7M0TRrxpNWSRb-30" value="" style="shape=flexArrow;endArrow=classic;" edge="1" parent="1">
          <mxGeometry width="50" height="50" relative="1" as="geometry">
            <mxPoint x="570" y="160" as="sourcePoint" />
            <mxPoint x="570" y="200" as="targetPoint" />
          </mxGeometry>
        </mxCell>
        <mxCell id="3Ifn0Ms7M0TRrxpNWSRb-31" value="" style="shape=flexArrow;endArrow=classic;" edge="1" parent="1">
          <mxGeometry width="50" height="50" relative="1" as="geometry">
            <mxPoint x="189" y="310" as="sourcePoint" />
            <mxPoint x="189" y="350" as="targetPoint" />
          </mxGeometry>
        </mxCell>
        <mxCell id="3Ifn0Ms7M0TRrxpNWSRb-32" value="" style="shape=flexArrow;endArrow=classic;" edge="1" parent="1">
          <mxGeometry width="50" height="50" relative="1" as="geometry">
            <mxPoint x="382.79999999999995" y="310" as="sourcePoint" />
            <mxPoint x="382.79999999999995" y="350" as="targetPoint" />
          </mxGeometry>
        </mxCell>
        <mxCell id="3Ifn0Ms7M0TRrxpNWSRb-33" value="" style="shape=flexArrow;endArrow=classic;" edge="1" parent="1">
          <mxGeometry width="50" height="50" relative="1" as="geometry">
            <mxPoint x="569" y="310" as="sourcePoint" />
            <mxPoint x="569" y="350" as="targetPoint" />
          </mxGeometry>
        </mxCell>
      </root>
    </mxGraphModel>
  </diagram>
</mxfile>
